# xmcd CD database file
#
# Track frame offsets:
#	150
#	21101
#	40155
#	59931
#	84775
#	108098
#	121961
#	137086
#	160234
#	181991
#	202936
#	222141
#
# Disc length: 3236 seconds
#
# Revision: 0
# Processed by: cddbd v1.5.2PL0 Copyright (c) Steve Scherf et al.
# Submitted via: CDex 1.70beta2
#
DISCID=9d0ca20c
DTITLE=Cassandra Wilson - Glamoured
DYEAR=1900
DGENRE=Jazz
TTITLE0=Fragile 
TTITLE1=Sleight Of Time
TTITLE2=I Want More
TTITLE3=If Loving You Is Wrong 
TTITLE4=Lay Lady Lay 
TTITLE5=Crazy 
TTITLE6=What Is It 
TTITLE7=Heaven Knows
TTITLE8=Honey Bee 
TTITLE9=Broken Drum 
TTITLE10=On This Train
TTITLE11=Throw It Away 
EXTD=
EXTT0=
EXTT1=
EXTT2=
EXTT3=
EXTT4=
EXTT5=
EXTT6=
EXTT7=
EXTT8=
EXTT9=
EXTT10=
EXTT11=
PLAYORDER=
